<svg id="Layer_1" xmlns="http://www.w3.org/2000/svg" viewBox="0 0 23 23"><style>.st0{fill:#1a2e3b}.st1{fill:#00adef}</style><title>icons-singletons</title><path class="st0" d="M11.5.9C7 .9 3.3 3.3 1.7 7.5c-2.2 5.7.2 11.7 5.8 14 3 1.2 6.4 1 9.2-.5 4-2.2 6-6.3 5.4-10.8C21.4 4.6 17 .9 11.5.9zm-3.4 10h.1c-.7-3.6 2.1-4.5 2.1-4.5.4-.1.8-.2 1.2-.2.4 0 .8 0 1.2.2 0 0 2.8 1 2.1 4.6.7-.2.2 1.9-.5 1.9-.1.7-.4 1.4-.9 1.9-.9 1.1-2.5 1.2-3.5.3l-.3-.3c-.5-.6-.8-1.3-.9-2-.7-.1-1.2-1.9-.6-1.9zm4.9 9.5c-2.7.5-5.5-.3-7.5-2.2 1.1-1 4.1-.5 4.1-2.3 1.1.9 2.7.9 3.8 0 0 1.8 3.1 1.3 4.1 2.3-.7.7-1.5 1.2-2.4 1.6-.6.2-1.4.4-2.1.6z"/><path class="st1" d="M11.5 2.5c5 0 9 4 9 9s-4 9-9 9-9-4-9-9 4-9 9-9m0-2C5.4.5.5 5.4.5 11.5s4.9 11 11 11 11-4.9 11-11-4.9-11-11-11z"/></svg>