<svg id="Layer_1" xmlns="http://www.w3.org/2000/svg" viewBox="0 0 23 23"><style>.st0{fill:#1a2e3b}.st1{fill:#1a2e3b}</style><title>icons-ui-set copy</title><path class="st0" d="M15.2 17.6c4.4-3.1 5.4-9.1 2.3-13.5-.1-.2-.3-.4-.4-.6C13.9-.1 8.5-.9 4.4 1.8c-4 2.7-5.4 8-3.2 12.3 2.4 4.6 8 6.5 12.7 4.3.5-.3.9-.5 1.3-.8zm-5.5-1.8c-3.3 0-6-2.7-6.1-6.1 0-3.3 2.7-6.1 6.1-6.1 3.3 0 6.1 2.7 6.1 6.1 0 3.4-2.7 6.1-6.1 6.1z"/><path class="st1" d="M22.5 20l-4.7-4.7c2.2-3.2 2.4-7.6 0-11C15.9 1.6 12.9 0 9.7 0 4.4 0 0 4.4 0 9.7c0 5.4 4.4 9.7 9.7 9.7 2 0 3.9-.6 5.5-1.7l4.8 4.7c1.5 1.7 4.1-.8 2.5-2.4zm-8.2-3.6C10.6 18.9 5.6 18 3 14.3.5 10.6 1.5 5.5 5.2 3c1.3-.9 2.9-1.4 4.6-1.4 4.5 0 8.1 3.6 8.1 8.1 0 2.5-1.2 4.9-3.2 6.5l-.4.2z"/></svg>
